<svg width="100%" height="100%" viewBox="-55 -55 110 110" fill="" xmlns="http://www.w3.org/2000/svg">
    <!-- letter E-->
    <path d="M-20 -25 L-40 -25 L-40 -12 L-30 -12 M-40 -12 L-40 1 L-20 -1 M0 0 Z" fill="none" stroke="#000" stroke-width="2"></path>
    <!-- letter A-->
    <path d="M-18 1 L-8 -25 L2 1 L-13 -9 M0 0 Z" fill="none" stroke="#000" stroke-width="2"></path>
    <!-- letter S-->
    <path d="M24 -20 A10,9 360 1 0 4,-14 C4,-14 9,-11 14,-13 C14,-13 19,-15 24,-11 A10,10 360 0 1 4,-8 M0 0 Z" fill="none" stroke="#000" stroke-width="2"></path>
    <!-- letter Y-->
    <!-- <path d="M26 -26 L36 -13 L46 -26 M36 -13 L36 0 M0 0 Z" fill="none" stroke="#61DAFB" stroke-width="2"></path> -->
    <path d="M26 -26 L36 -13 L46 -26 M36 -13 L36 0 M0 0 Z" fill="none" stroke="#000" stroke-width="2"></path>
    <!-- letter V-->
    <!-- <path d="M-40 5 L-30 25 L-20 5 M0 0 Z" fill="none" stroke="#008000" stroke-width="2"></path> -->
    <path d="M-40 5 L-30 25 L-20 5 M0 0 Z" fill="none" stroke="#000" stroke-width="2"></path>
    <!-- letter e-->
    <path d="M-20 16 L1 16 A10,9 360 1 0 -1,22 M0 0 Z" fill="none" stroke="#000" stroke-width="2"></path>
    <!-- letter g-->
    <path d="M21 25 L21 10 A9,8 360 1 0 21,23 L21 24 C21,24 12,40 6,24 M0 0  Z" fill="none" stroke="#000" stroke-width="2"></path>
    <!-- letter y-->
    <path d="M26 8 C26,8 30,35 41,8 C41,8 38,26 26,30 M0 0 Z" fill="none" stroke="#000" stroke-width="2"></path>
</svg>